<svg xmlns="http://www.w3.org/2000/svg" width="265" height="40" viewBox="0 0 265 40" fill="none"><path d="M33.95 29.82V10.94C33.95 9.00667 34.9167 8.04 36.85 8.04H47.83C49.0967 8.04 49.73 8.65 49.73 9.87C49.73 11.09 49.0967 11.69 47.83 11.67H37.85V18.82H47.1C48.3667 18.82 49 19.41 49 20.59C49 21.79 48.3667 22.39 47.1 22.39H37.85V29.82C37.85 31.0533 37.2 31.67 35.9 31.67C34.6 31.67 33.95 31.0533 33.95 29.82Z" fill="#F15A29"></path><path d="M52.63 25.17C52.51 23.92 52.51 21.89 52.61 20.72C52.99 16.6 55.96 13.69 60.44 13.69C64.92 13.69 67.8 16.67 67.8 21.05V22.03C67.8 23.86 67.43 24.13 65.78 24.13H56.15C56.15 24.36 56.15 24.61 56.17 24.85C56.3 27.08 58.02 28.57 60.6 28.57C62.17 28.57 63.27 28.27 64.33 27.84C64.9 27.61 65.21 27.44 65.53 27.44C65.9 27.44 66.1 27.71 66.51 28.67C66.84 29.42 66.93 29.7 66.93 29.92C66.93 30.24 66.75 30.44 65.96 30.79C64.43 31.46 62.61 31.99 60.6 31.99C56.05 31.99 52.99 29.19 52.62 25.18L52.63 25.17ZM55.91 9.25L59.24 6.72C59.74 6.35 60.07 6.22 60.44 6.22C60.81 6.22 61.17 6.37 61.64 6.72L64.97 9.25C65.42 9.6 65.75 9.8 65.75 10.13C65.75 10.33 65.68 10.5 65.1 11.23C64.52 11.98 64.4 12.15 64.03 12.15C63.78 12.15 63.56 12 63.13 11.65L60.43 9.57L57.76 11.64C57.43 11.92 57.13 12.16 56.84 12.16C56.51 12.16 56.41 12.04 55.81 11.28C55.21 10.55 55.13 10.38 55.13 10.15C55.13 9.83 55.4 9.65 55.9 9.27L55.91 9.25ZM64.31 21.44C64.54 18.57 62.86 16.93 60.33 16.93C57.8 16.93 56.33 18.6 56.18 21.03C56.18 21.16 56.16 21.31 56.16 21.45H64.31V21.44Z" fill="#F15A29"></path><path d="M71.81 29.87V17.74C71.81 16.26 71.89 15.84 72.78 15.34C74.06 14.61 76.45 13.66 79.49 13.66C84.24 13.66 86.97 16.33 86.97 20.71V29.87C86.97 31.07 86.3367 31.67 85.07 31.67C83.8033 31.67 83.1767 31.07 83.19 29.87V21.09C83.19 18.62 81.91 17.32 79.42 17.32C77.94 17.32 76.45 17.7 75.59 18.27V29.87C75.59 31.07 74.9567 31.67 73.69 31.67C72.4367 31.67 71.81 31.07 71.81 29.87Z" fill="#F15A29"></path><path d="M93.75 7.38C95.1033 7.38 95.78 8.07 95.78 9.45C95.78 10.83 95.1033 11.53 93.75 11.55C92.3967 11.57 91.72 10.87 91.72 9.45C91.72 8.03 92.3967 7.34 93.75 7.38ZM91.87 29.87V15.78C91.87 14.58 92.4967 13.98 93.75 13.98C95.0167 13.98 95.65 14.58 95.65 15.78V29.87C95.65 31.07 95.0167 31.67 93.75 31.67C92.4967 31.67 91.87 31.07 91.87 29.87Z" fill="#F15A29"></path><path d="M111.79 31.15L107.26 25.67L102.79 31.18C102.49 31.55 102.17 31.86 101.91 31.86C101.56 31.86 101.33 31.66 100.58 31.03C99.53 30.16 99.48 30.03 99.48 29.76C99.48 29.48 99.7 29.19 100.01 28.81L104.91 22.81L100.05 16.9C99.75 16.53 99.48 16.25 99.48 15.93C99.48 15.6 99.7 15.4 100.48 14.75C101.38 14 101.56 13.83 101.88 13.83C102.15 13.83 102.33 14 102.76 14.51L107.34 20.04L111.82 14.56C112.15 14.14 112.4 13.84 112.74 13.84C113.08 13.84 113.37 14.11 114.12 14.74C114.92 15.41 115.14 15.64 115.14 15.92C115.14 16.15 115.06 16.37 114.59 16.92L109.71 22.87L114.59 28.75C114.96 29.18 115.16 29.47 115.16 29.73C115.16 29.96 115.01 30.18 114.14 30.93C113.22 31.71 113.02 31.86 112.76 31.86C112.41 31.86 112.23 31.63 111.79 31.13V31.15Z" fill="#F15A29"></path><path d="M120.09 29.79V9.93C120.09 8.67667 120.717 8.05 121.97 8.05H133.87C134.583 8.05 134.94 8.37667 134.94 9.03C134.94 9.68333 134.583 10.01 133.87 10.01H122.09V18.86H132.84C133.56 18.86 133.92 19.1867 133.92 19.84C133.92 20.4933 133.56 20.82 132.84 20.82H122.09V29.7H133.94C134.653 29.7 135.01 30.0233 135.01 30.67C135.01 31.3367 134.653 31.67 133.94 31.67H121.98C120.727 31.67 120.1 31.0433 120.1 29.79H120.09Z" fill="#303030"></path><path d="M139.2 25.41C139.07 24.08 139.07 22.01 139.2 20.68C139.6 16.78 142.27 14.12 146.48 14.12C148.36 14.12 150.18 14.62 151.43 15.25V8.62C151.43 8.04 151.753 7.75 152.4 7.75C153.047 7.75 153.37 8.04 153.37 8.62V29.18C153.37 29.71 153.24 29.96 152.9 30.18C151.78 30.88 149.13 31.98 146.49 31.98C142.27 31.98 139.59 29.31 139.21 25.42L139.2 25.41ZM146.48 30.04C148.16 30.04 150.38 29.49 151.43 28.74V17.34C150.38 16.59 148.16 16.04 146.48 16.04C143.28 16.04 141.42 17.91 141.13 20.75C141 22.12 141 23.95 141.13 25.31C141.4 28.16 143.28 30.02 146.48 30.02V30.04Z" fill="#303030"></path><path d="M159.21 25.06V15.28C159.21 14.7 159.533 14.41 160.18 14.41C160.827 14.41 161.15 14.7 161.15 15.28V24.96C161.15 28.33 162.8 30.04 166.15 30.04C168.08 30.04 170.02 29.47 171.15 28.74V15.28C171.15 14.7 171.473 14.41 172.12 14.41C172.767 14.41 173.09 14.7 173.09 15.28V29.17C173.09 29.7 172.96 29.95 172.62 30.17C171.54 30.87 169.09 31.97 166.16 31.97C161.73 31.97 159.23 29.44 159.23 25.06H159.21Z" fill="#303030"></path><path d="M178.34 25.41C178.21 24.08 178.21 22.01 178.34 20.68C178.71 16.78 181.41 14.12 185.54 14.12C188.69 14.12 190.97 15.69 191.99 18.2C192.21 18.73 192.26 19.02 192.26 19.1C192.26 19.42 192.14 19.55 191.46 19.75C191.11 19.85 190.94 19.87 190.81 19.87C190.58 19.87 190.48 19.72 190.36 19.39C189.61 17.22 187.98 16.06 185.55 16.06C182.43 16.06 180.55 17.96 180.29 20.77C180.16 22.14 180.16 23.97 180.29 25.33C180.56 28.15 182.41 30.04 185.55 30.04C187.98 30.04 189.61 28.87 190.36 26.71C190.48 26.38 190.58 26.23 190.81 26.23C190.94 26.23 191.11 26.25 191.46 26.35C192.14 26.55 192.26 26.68 192.26 27C192.26 27.08 192.21 27.37 191.99 27.9C190.97 30.42 188.69 31.98 185.54 31.98C181.41 31.98 178.73 29.31 178.34 25.42V25.41Z" fill="#303030"></path><path d="M195.63 26.47C195.63 23.6 197.86 21.11 202.19 21.11C203.86 21.11 205.22 21.31 207.19 21.88V20.21C207.19 17.31 205.72 16.04 202.66 16.04C201.06 16.04 199.43 16.56 198.49 16.97C198.12 17.14 197.96 17.2 197.86 17.2C197.66 17.2 197.54 17.08 197.26 16.48C197.01 15.95 196.99 15.81 196.99 15.71C196.99 15.54 197.12 15.43 197.39 15.29C198.82 14.62 200.86 14.09 202.87 14.09C206.74 14.09 209.12 16.01 209.12 20.09V29.22C209.12 29.69 209.02 29.87 208.69 30.12C207.81 30.79 205.29 31.95 202.03 31.95C198.16 31.95 195.63 29.82 195.63 26.45V26.47ZM202.33 30.04C204.01 30.04 205.85 29.51 207.19 28.77V23.81C205.26 23.24 203.92 23.01 202.33 23.01C199.06 23.01 197.57 24.51 197.57 26.51C197.57 28.74 199.27 30.04 202.33 30.04Z" fill="#303030"></path><path d="M219.09 39.37C218.86 38.84 218.82 38.74 218.82 38.67C218.82 38.5 218.92 38.37 219.22 38.27C221.57 37.42 222 36.77 222 36.1C222 35.6 221.63 35.07 220.97 35.07C220.5 35.07 220.37 35.2 220 35.2C219.8 35.2 219.65 35.07 219.37 34.83C219.07 34.6 219.02 34.53 219.02 34.33C219.02 34.23 219.1 34 219.19 33.76L219.86 31.83C216.58 31.26 214.5 28.8 214.16 25.4C214.03 24.07 214.03 22 214.16 20.67C214.53 16.77 217.23 14.11 221.36 14.11C224.51 14.11 226.79 15.68 227.81 18.19C228.03 18.72 228.08 19.01 228.08 19.09C228.08 19.41 227.96 19.54 227.28 19.74C226.93 19.84 226.76 19.86 226.63 19.86C226.4 19.86 226.3 19.71 226.18 19.38C225.43 17.21 223.8 16.05 221.37 16.05C218.25 16.05 216.37 17.95 216.11 20.76C215.98 22.13 215.98 23.96 216.11 25.32C216.38 28.14 218.23 30.03 221.37 30.03C223.8 30.03 225.43 28.86 226.18 26.7C226.3 26.37 226.4 26.22 226.63 26.22C226.76 26.22 226.93 26.24 227.28 26.34C227.96 26.54 228.08 26.67 228.08 26.99C228.08 27.07 228.03 27.36 227.81 27.89C226.83 30.32 224.66 31.86 221.7 31.97L221.53 32.45L221.25 33.3C222.82 33.37 223.98 34.5 223.98 36.07C223.98 38.04 222.26 39.05 220.56 39.74C220.36 39.82 219.79 40.01 219.63 40.01C219.36 40.01 219.3 39.84 219.1 39.38L219.09 39.37Z" fill="#303030"></path><path d="M231.45 26.47C231.45 23.6 233.68 21.11 238.01 21.11C239.68 21.11 241.04 21.31 243.01 21.88V20.21C243.01 17.31 241.54 16.04 238.48 16.04C236.88 16.04 235.25 16.56 234.31 16.97C233.94 17.14 233.78 17.2 233.68 17.2C233.48 17.2 233.36 17.08 233.08 16.48C232.83 15.95 232.81 15.81 232.81 15.71C232.81 15.54 232.94 15.43 233.21 15.29C234.64 14.62 236.68 14.09 238.69 14.09C242.56 14.09 244.94 16.01 244.94 20.09V29.22C244.94 29.69 244.84 29.87 244.51 30.12C243.63 30.79 241.11 31.95 237.85 31.95C233.98 31.95 231.45 29.82 231.45 26.45V26.47ZM238.15 30.04C239.83 30.04 241.67 29.51 243.01 28.77V23.81C241.08 23.24 239.74 23.01 238.15 23.01C234.88 23.01 233.39 24.51 233.39 26.51C233.39 28.74 235.09 30.04 238.15 30.04ZM234.72 10.73C235.02 11.1 235.12 11.21 235.32 11.21C235.49 11.21 235.7 11.04 235.94 10.84C236.22 10.61 236.59 10.32 237.01 10.32C237.56 10.32 238.14 10.7 238.81 11.04C239.33 11.31 239.91 11.56 240.63 11.56C241.4 11.56 242.16 11.18 242.9 10.56C243.2 10.31 243.33 10.16 243.33 9.99C243.33 9.82 243.18 9.71 242.9 9.36C242.6 8.99 242.5 8.88 242.3 8.88C242.13 8.88 241.92 9.05 241.68 9.25C241.4 9.48 241.03 9.77 240.61 9.77C240.06 9.77 239.48 9.39 238.81 9.05C238.29 8.78 237.71 8.53 236.99 8.53C236.22 8.53 235.46 8.91 234.72 9.53C234.42 9.78 234.29 9.93 234.29 10.1C234.29 10.27 234.44 10.38 234.72 10.73Z" fill="#303030"></path><path d="M249.96 25.24C249.83 23.99 249.83 22.09 249.94 20.84C250.32 16.86 253.24 14.11 257.32 14.11C261.4 14.11 264.35 16.86 264.72 20.84C264.84 22.09 264.84 23.99 264.7 25.24C264.3 29.22 261.42 31.97 257.32 31.97C253.22 31.97 250.37 29.22 249.96 25.24ZM257.33 30.04C260.41 30.04 262.49 28.06 262.79 25.16C262.92 23.88 262.92 22.21 262.79 20.93C262.51 18.03 260.41 16.05 257.33 16.05C254.25 16.05 252.18 18.03 251.88 20.93C251.75 22.21 251.75 23.88 251.88 25.16C252.16 28.06 254.26 30.04 257.33 30.04Z" fill="#303030"></path><path d="M25.94 9.68C25.94 13 24.69 16.03 22.64 18.33L4.32 36.64C1.67 34.27 0 30.81 0 26.97C0 23.65 1.25 20.62 3.3 18.32C3.45 18.15 3.61 17.98 3.78 17.82L21.6 0C24.26 2.37 25.94 5.83 25.94 9.68Z" fill="url(#paint0_linear_36_79)"></path><path d="M21.62 31.3C21.62 35.99 17.89 39.81 13.23 39.94C13.14 39.94 13.06 39.94 12.97 39.94C12.88 39.94 12.8 39.94 12.71 39.94C10.28 39.89 8.02 39.18 6.1 37.98L18.99 25.09C20.61 26.66 21.62 28.86 21.62 31.3Z" fill="url(#paint1_linear_36_79)"></path><defs><linearGradient id="paint0_linear_36_79" x1="40.8339" y1="29.7891" x2="45.0744" y2="-9.83257" gradientUnits="userSpaceOnUse"><stop stop-color="#F15A29"></stop><stop offset="0.27" stop-color="#EF5628"></stop><stop offset="0.5" stop-color="#E94B26"></stop><stop offset="0.73" stop-color="#DF3923"></stop><stop offset="0.94" stop-color="#D2201F"></stop><stop offset="1" stop-color="#CE181E"></stop></linearGradient><linearGradient id="paint1_linear_36_79" x1="19.42" y1="38.41" x2="8.44998" y2="27.44" gradientUnits="userSpaceOnUse"><stop stop-color="#E6860E"></stop><stop offset="0.26" stop-color="#E97617"></stop><stop offset="0.71" stop-color="#EF6124"></stop><stop offset="1" stop-color="#F15A29"></stop></linearGradient></defs></svg>